<svg id="Layer_1" data-name="Layer 1" xmlns="http://www.w3.org/2000/svg" viewBox="0 0 765.0376 119.4332"><defs><style>.cls-1{isolation:isolate;}.cls-2{fill:#fff;}.cls-3,.cls-4,.cls-5,.cls-6{fill:none;stroke-miterlimit:10;}.cls-3{stroke:#fcfcfc;}.cls-3,.cls-5,.cls-6{stroke-width:4px;}.cls-4{stroke:#fdfffd;stroke-width:2px;}.cls-5,.cls-6{stroke:#fff;}.cls-5{stroke-linecap:round;}</style></defs><title>logoCiting</title><g id="Layer_1-2" data-name="Layer 1"><g class="cls-1"><g class="cls-1"><path class="cls-2" d="M60.11377,81.02539l8.55811,1.99316q-2.69166,9.7251-9.68311,14.833Q51.99634,102.958,41.89453,102.957q-10.45532,0-17.00635-3.92578A25.04006,25.04006,0,0,1,14.91846,87.6582,37.86957,37.86957,0,0,1,11.49951,71.666a32.89368,32.89368,0,0,1,3.86035-16.25684A25.40354,25.40354,0,0,1,26.34424,44.86963a34.25729,34.25729,0,0,1,15.68262-3.60108q9.70458,0,16.32226,4.55762A23.66283,23.66283,0,0,1,67.56885,58.644L59.14307,60.4751q-2.25-6.50977-6.52881-9.48145A18.44627,18.44627,0,0,0,41.8501,48.02344a22.19493,22.19493,0,0,0-12.46192,3.2959,17.57086,17.57086,0,0,0-7.03662,8.85058A33.12611,33.12611,0,0,0,20.32275,71.625a33.86563,33.86563,0,0,0,2.40381,13.28516,16.87759,16.87759,0,0,0,7.47754,8.48437,22.30218,22.30218,0,0,0,10.98438,2.8086,19.41106,19.41106,0,0,0,12.17578-3.8252Q58.34839,88.55323,60.11377,81.02539Z" transform="translate(-11.49951 -0.04531)"/><path class="cls-2" d="M78.24463,50.709V42.28564h7.94043V50.709Zm0,51.23145V58.72559h7.94043v43.21484Z" transform="translate(-11.49951 -0.04531)"/><path class="cls-2" d="M115.60986,95.38867l1.147,6.47071a31.85825,31.85825,0,0,1-5.99952.65039,14.53627,14.53627,0,0,1-6.70556-1.26172,7.30944,7.30944,0,0,1-3.35254-3.31641q-.97119-2.05371-.9707-8.64648V64.42236H93.90527V58.72559h5.82325V48.02344l7.89648-4.395V58.72559h7.98486v5.69677H107.625V89.69141a11.81667,11.81667,0,0,0,.41895,4.02929,3.13183,3.13183,0,0,0,1.36767,1.42383,5.64189,5.64189,0,0,0,2.71289.5293A27.86858,27.86858,0,0,0,115.60986,95.38867Z" transform="translate(-11.49951 -0.04531)"/><path class="cls-2" d="M123.41748,50.709V42.28564h7.94043V50.709Zm0,51.23145V58.72559h7.94043v43.21484Z" transform="translate(-11.49951 -0.04531)"/><path class="cls-2" d="M143.4458,101.94043V58.72559h7.14649v6.14453q5.16136-7.1206,14.91064-7.12158a20.99629,20.99629,0,0,1,7.78613,1.40429,12.19477,12.19477,0,0,1,5.31592,3.68262,13.59277,13.59277,0,0,1,2.47022,5.4126,38.79334,38.79334,0,0,1,.44091,7.12109v26.57129h-7.94043V75.65332a18.32029,18.32029,0,0,0-.92627-6.69434,7.232,7.232,0,0,0-3.28662-3.53955,11.14567,11.14567,0,0,0-5.53613-1.32275,13.51985,13.51985,0,0,0-8.75684,2.9707q-3.68408,2.9707-3.68359,11.27149v23.60156Z" transform="translate(-11.49951 -0.04531)"/><path class="cls-2" d="M192.23584,105.52148l7.72021,1.05762a6.64462,6.64462,0,0,0,2.69092,4.80176q2.95533,2.03466,8.07276,2.03516,5.5144,0,8.51416-2.03516a10.005,10.005,0,0,0,4.05859-5.69727q.61743-2.23827.57373-9.39941a16.9042,16.9042,0,0,1-12.96973,5.65625q-9.66136,0-14.95507-6.42871A23.49078,23.49078,0,0,1,190.648,80.08887a26.7769,26.7769,0,0,1,2.42627-11.41407,18.27165,18.27165,0,0,1,7.03613-8.07763,20.18863,20.18863,0,0,1,10.83008-2.84863,17.33336,17.33336,0,0,1,13.67529,6.18554V58.72559H231.939V96.08008q0,10.09277-2.228,14.30469a15.67423,15.67423,0,0,1-7.05811,6.65234,26.1657,26.1657,0,0,1-11.88867,2.44141q-8.38257,0-13.54346-3.47852Q192.05933,112.51953,192.23584,105.52148Zm6.57324-25.96191q0,8.50635,3.66162,12.41113a12.04756,12.04756,0,0,0,9.17578,3.90625,12.17069,12.17069,0,0,0,9.17579-3.88574q3.70532-3.88623,3.70556-12.1875,0-7.93506-3.81592-11.96338a12.21508,12.21508,0,0,0-9.19775-4.02832,11.8568,11.8568,0,0,0-8.99951,3.96729Q198.80932,71.7461,198.80908,79.55957Z" transform="translate(-11.49951 -0.04531)"/></g></g><g class="cls-1"><path class="cls-2" d="M477.08887,101.94043V42.28564h8.55859v59.65479Z" transform="translate(-11.49951 -0.04531)"/><path class="cls-2" d="M499.71875,101.94043V58.72559h7.14648v6.14453q5.16211-7.1206,14.91114-7.12158a20.99813,20.99813,0,0,1,7.78613,1.40429,12.193,12.193,0,0,1,5.31543,3.68262,13.59329,13.59329,0,0,1,2.4707,5.4126,38.73486,38.73486,0,0,1,.44141,7.12109v26.57129h-7.94043V75.65332a18.32912,18.32912,0,0,0-.92676-6.69434,7.23331,7.23331,0,0,0-3.28613-3.53955,11.14821,11.14821,0,0,0-5.53711-1.32275,13.52265,13.52265,0,0,0-8.75684,2.9707q-3.6826,2.9707-3.68261,11.27149v23.60156Z" transform="translate(-11.49951 -0.04531)"/><path class="cls-2" d="M546.79,89.041l7.85254-1.13868a9.88793,9.88793,0,0,0,3.68359,6.67286q3.0205,2.31884,8.44727,2.31933,5.46972,0,8.11719-2.05469a5.995,5.995,0,0,0,2.64746-4.82226,4.38094,4.38094,0,0,0-2.33887-3.90625q-1.63184-.97705-8.11621-2.48242a78.46367,78.46367,0,0,1-12.10938-3.51953,11.49733,11.49733,0,0,1-5.11816-4.11036,10.25579,10.25579,0,0,1-1.74219-5.79785,10.44873,10.44873,0,0,1,1.4336-5.35156,12.2223,12.2223,0,0,1,3.90429-4.08984,17.06973,17.06973,0,0,1,5.05078-2.13623,25.919,25.919,0,0,1,6.86035-.875,29.18216,29.18216,0,0,1,9.68262,1.46533,13.20288,13.20288,0,0,1,6.1543,3.96728,14.82591,14.82591,0,0,1,2.73535,6.69385l-7.76465.97656a7.6925,7.6925,0,0,0-3.06543-5.20849q-2.5371-1.87134-7.16894-1.87207-5.47119,0-7.8086,1.66845a4.773,4.773,0,0,0-2.33789,3.90625,3.84974,3.84974,0,0,0,.97071,2.56446,7.016,7.016,0,0,0,3.04394,1.95312q1.19092.40724,7.01367,1.8711a103.898,103.898,0,0,1,11.75684,3.39843,11.80147,11.80147,0,0,1,5.22754,3.84571,10.12909,10.12909,0,0,1,1.89746,6.26562,11.63871,11.63871,0,0,1-2.31641,6.89746,14.773,14.773,0,0,1-6.68359,5.00488,26.09943,26.09943,0,0,1-9.88184,1.77051q-9.13036,0-13.918-3.499Q548.11231,95.917,546.79,89.041Z" transform="translate(-11.49951 -0.04531)"/><path class="cls-2" d="M595.18359,50.709V42.28564H603.124V50.709Zm0,51.23145V58.72559H603.124v43.21484Z" transform="translate(-11.49951 -0.04531)"/><path class="cls-2" d="M613.75586,105.52148l7.71973,1.05762a6.6418,6.6418,0,0,0,2.6914,4.80176q2.95459,2.03466,8.07227,2.03516,5.51367,0,8.51465-2.03516a10.00725,10.00725,0,0,0,4.05859-5.69727q.61669-2.23827.57324-9.39941a16.90419,16.90419,0,0,1-12.96972,5.65625q-9.66065,0-14.95508-6.42871A23.48853,23.48853,0,0,1,612.167,80.08887a26.77,26.77,0,0,1,2.42676-11.41407,18.27165,18.27165,0,0,1,7.03613-8.07763A20.18982,20.18982,0,0,1,632.46,57.74854a17.33433,17.33433,0,0,1,13.67578,6.18554V58.72559H653.458V96.08008q0,10.09277-2.22754,14.30469a15.67547,15.67547,0,0,1-7.05762,6.65234,26.17147,26.17147,0,0,1-11.88965,2.44141q-8.38184,0-13.543-3.47852Q613.57958,112.51953,613.75586,105.52148Zm6.57227-25.96191q0,8.50635,3.6621,12.41113a12.04757,12.04757,0,0,0,9.17579,3.90625,12.16993,12.16993,0,0,0,9.17578-3.88574q3.706-3.88623,3.70508-12.1875,0-7.93506-3.81543-11.96338A12.21465,12.21465,0,0,0,633.0332,63.812a11.85653,11.85653,0,0,0-8.999,3.96729Q620.32813,71.7461,620.32813,79.55957Z" transform="translate(-11.49951 -0.04531)"/><path class="cls-2" d="M665.457,101.94043V42.28564h7.94141v21.4043a18.389,18.389,0,0,1,14.02832-5.9414,20.2293,20.2293,0,0,1,9.043,1.89257,11.56976,11.56976,0,0,1,5.49218,5.229q1.65381,3.33691,1.6543,9.68457v27.38574h-7.94043V74.55469q0-5.49317-2.58105-7.9961-2.5796-2.50267-7.30078-2.50244a13.70287,13.70287,0,0,0-6.63868,1.68848,9.83756,9.83756,0,0,0-4.43359,4.57764,19.55321,19.55321,0,0,0-1.32324,7.97656v23.6416Z" transform="translate(-11.49951 -0.04531)"/><path class="cls-2" d="M733.04,95.38867l1.14746,6.47071a31.86284,31.86284,0,0,1-6,.65039,14.53543,14.53543,0,0,1-6.70508-1.26172,7.30949,7.30949,0,0,1-3.35254-3.31641q-.97119-2.05371-.9707-8.64648V64.42236h-5.82324V58.72559h5.82324V48.02344l7.89648-4.395V58.72559H733.04v5.69677h-7.98438V89.69141a11.82972,11.82972,0,0,0,.41895,4.02929,3.133,3.133,0,0,0,1.36816,1.42383,5.63928,5.63928,0,0,0,2.71289.5293A27.84861,27.84861,0,0,0,733.04,95.38867Z" transform="translate(-11.49951 -0.04531)"/><path class="cls-2" d="M737.62793,89.041l7.85254-1.13868a9.88793,9.88793,0,0,0,3.68359,6.67286q3.02051,2.31884,8.44727,2.31933,5.46972,0,8.11719-2.05469a5.995,5.995,0,0,0,2.64746-4.82226,4.38094,4.38094,0,0,0-2.33887-3.90625q-1.63184-.97705-8.11621-2.48242a78.46367,78.46367,0,0,1-12.10938-3.51953,11.49733,11.49733,0,0,1-5.11816-4.11036,10.25579,10.25579,0,0,1-1.74219-5.79785,10.44873,10.44873,0,0,1,1.4336-5.35156,12.2223,12.2223,0,0,1,3.90429-4.08984,17.06973,17.06973,0,0,1,5.05078-2.13623,25.919,25.919,0,0,1,6.86036-.875,29.18214,29.18214,0,0,1,9.68261,1.46533,13.20288,13.20288,0,0,1,6.1543,3.96728,14.82591,14.82591,0,0,1,2.73535,6.69385l-7.76465.97656a7.6925,7.6925,0,0,0-3.06543-5.20849q-2.5371-1.87134-7.16894-1.87207-5.47119,0-7.8086,1.66845A4.773,4.773,0,0,0,746.627,69.3457a3.84979,3.84979,0,0,0,.97071,2.56446,7.016,7.016,0,0,0,3.04394,1.95312q1.19092.40724,7.01367,1.8711a103.898,103.898,0,0,1,11.75684,3.39843,11.80147,11.80147,0,0,1,5.22754,3.84571,10.12909,10.12909,0,0,1,1.89746,6.26562,11.63871,11.63871,0,0,1-2.31641,6.89746,14.773,14.773,0,0,1-6.68359,5.00488,26.09943,26.09943,0,0,1-9.88184,1.77051q-9.13036,0-13.918-3.499Q738.9502,95.917,737.62793,89.041Z" transform="translate(-11.49951 -0.04531)"/></g></g><g id="Layer_6" data-name="Layer 6"><path class="cls-3" d="M449.9,57a64.28314,64.28314,0,0,0-3.9-7.9C422,6,363.4-10.5,315.2,12.3c-20.5,9.6-36.8,25.5-46.1,45" transform="translate(-11.49951 -0.04531)"/><path class="cls-4" d="M443.7,57a52.78278,52.78278,0,0,0-2.7-5.3C418.3,10.9,362.9-4.8,317.2,16.9c-18.6,8.7-33.6,22.9-42.5,40.4" transform="translate(-11.49951 -0.04531)"/></g><g id="Layer_3" data-name="Layer 3"><path class="cls-2" d="M359,13.1a31.6121,31.6121,0,0,0-19.4,6.4l14.2,14.7-22.7-4.4c-6.9,14.2,0,30.9,15.4,37.3s33.5,0,40.4-14.2,0-30.9-15.4-37.3A31.36026,31.36026,0,0,0,359,13.1Z" transform="translate(-11.49951 -0.04531)"/></g><g id="Layer_4" data-name="Layer 4"><line class="cls-5" x1="316.90048" y1="83.55469" x2="312.30048" y2="95.95469"/><line class="cls-6" x1="319.30048" y1="77.35469" x2="314.60049" y2="89.75469"/><line class="cls-5" x1="378.10049" y1="82.85469" x2="382.80048" y2="95.25469"/><line class="cls-6" x1="375.80048" y1="76.65468" x2="380.40048" y2="89.05469"/><line class="cls-5" x1="347.30048" y1="87.55469" x2="347.30048" y2="106.25469"/><line class="cls-6" x1="347.30048" y1="78.15468" x2="347.30048" y2="96.85469"/></g></svg>