<svg xmlns="http://www.w3.org/2000/svg" viewBox="0 0 834.04 133.67"><defs><style>.cls-1{font-size:93px;font-family:AcierBATText-Outline, Acier BAT;}.cls-1,.cls-7{fill:#fff;}.cls-2{letter-spacing:0em;}.cls-3{letter-spacing:0.13em;}.cls-4{letter-spacing:-0.01em;}.cls-5,.cls-6,.cls-8,.cls-9{fill:none;stroke-miterlimit:10;}.cls-5{stroke:#fcfcfc;}.cls-5,.cls-8,.cls-9{stroke-width:4px;}.cls-6{stroke:#fdfffd;stroke-width:2px;}.cls-8,.cls-9{stroke:#fff;}.cls-8{stroke-linecap:round;}</style></defs><title>CILogo</title><g id="Layer_1" data-name="Layer 1"><text class="cls-1" transform="translate(0 114.23)">Citing <tspan class="cls-2" x="300.2" y="0">	</tspan><tspan class="cls-3" x="324" y="0" xml:space="preserve">				</tspan><tspan x="468" y="0">Insigh</tspan><tspan class="cls-4" x="745.51" y="0">t</tspan><tspan x="787.17" y="0">S</tspan></text></g><g id="Layer_6" data-name="Layer 6"><path class="cls-5" d="M614,328q-1.74-4.47-4-8.83c-24.69-48.15-85-66.53-134.67-41.06a102.63,102.63,0,0,0-47.44,50.2" transform="translate(-150.83 -264.62)"/><path class="cls-6" d="M607.66,328q-1.27-3-2.77-5.91c-23.35-45.57-80.41-63-127.44-38.86a97.28,97.28,0,0,0-43.79,45.06" transform="translate(-150.83 -264.62)"/></g><g id="Layer_3" data-name="Layer 3"><path class="cls-7" d="M520.5,279a31.39,31.39,0,0,0-20,7.14l14.59,16.36-23.38-4.86A31.5,31.5,0,1,0,520.5,279Z" transform="translate(-150.83 -264.62)"/></g><g id="Layer_4" data-name="Layer 4"><line class="cls-8" x1="338.19" y1="93.03" x2="333.37" y2="106.85"/><line class="cls-9" x1="340.6" y1="86.12" x2="335.78" y2="99.94"/><line class="cls-8" x1="401.15" y1="92.29" x2="405.97" y2="106.11"/><line class="cls-9" x1="398.73" y1="85.38" x2="403.56" y2="99.2"/><line class="cls-8" x1="369.43" y1="97.51" x2="369.43" y2="118.38"/><line class="cls-9" x1="369.43" y1="87.07" x2="369.43" y2="107.94"/></g></svg>